# xmcd
#
# Track frame offsets:
# 150
# 14703
# 40224
# 60657
# 76506
# 87435
# 107124
# 126597
# 138174
# 161247
# 185640
# 203817
# 238362
# 262443
#
# Disc length: 3877 seconds
#
#
# Revision: 0
# Processed by: cddbd v1.5PL3 Copyright (c) Steve Scherf et al.
# Submitted via: FreeRIP 2.35 
#
DISCID=d30f230e
DTITLE=Anderson fisher and Key - The Bourbon Streer Cafe
DYEAR=1900
DGENRE=Blues
TTITLE0=Some Of Shelly's Blues
TTITLE1=Mustang Sally
TTITLE2=Louisiana
TTITLE3=Rocky Racoon
TTITLE4=Go And Say Goodbye
TTITLE5=Pride And Joy
TTITLE6=Margaritaville
TTITLE7=I'm Looking Through You
TTITLE8=Cuban Crime Of Passion
TTITLE9=Pink Houses
TTITLE10=Love The One Your With
TTITLE11=Suite To Judy Blue Eyes
TTITLE12=Brown Eyed Girl
TTITLE13=Real Man
EXTD=
EXTT0=
EXTT1=
EXTT2=
EXTT3=
EXTT4=
EXTT5=
EXTT6=
EXTT7=
EXTT8=
EXTT9=
EXTT10=
EXTT11=
EXTT12=
EXTT13=
PLAYORDER=
